<svg width="84" height="74" viewBox="0 0 84 74" fill="none" xmlns="http://www.w3.org/2000/svg">
<g clip-path="url(#clip0_201_483)">
<rect width="11.7228" height="35.2874" rx="5.86138" transform="matrix(0.720744 0.693201 -0.590697 0.806893 74.0718 12.0593)" fill="#DDA360"/>
<rect width="11.2301" height="41.2936" rx="5.61507" transform="matrix(0.922906 -0.385024 0.30265 0.953102 9.14844 4.32397)" fill="#CB8E46"/>
<rect width="15.4235" height="44.8095" rx="7.71173" transform="matrix(0.980181 0.198102 -0.152046 0.988373 45.0706 4.15845)" fill="#EEC07B"/>
<path d="M0 58.7007C0 49.8028 8.02309 43.0554 16.7892 44.5809L20.6038 45.2447L42 46.1411L62.6038 45.2447L67.2417 44.4675C76.0114 42.9979 84 49.7592 84 58.6512V58.6512C84 66.5939 77.5612 73.0327 69.6185 73.0327H14.332C6.41665 73.0327 0 66.616 0 58.7007V58.7007Z" fill="#A38D75"/>
<path d="M72.4991 42.1653C73.2615 42.1653 73.8861 41.5458 73.8145 40.7869C73.3171 35.5191 69.9821 30.5338 64.394 26.7793C58.3205 22.6987 50.0831 20.4063 41.4939 20.4063C32.9048 20.4062 24.6674 22.6987 18.5939 26.7793C13.0058 30.5338 9.67076 35.5191 9.17339 40.7868C9.10173 41.5458 9.72642 42.1653 10.4888 42.1653L12.3274 42.1653C13.0898 42.1653 13.7001 41.5454 13.7835 40.7876C14.2731 36.3401 17.1207 32.1394 21.8462 28.9644C27.0571 25.4634 34.1246 23.4965 41.4939 23.4965C48.8633 23.4965 55.9308 25.4634 61.1417 28.9644C65.8672 32.1394 68.7148 36.3401 69.2044 40.7876C69.2878 41.5454 69.8981 42.1653 70.6605 42.1653H72.4991Z" fill="#EACEA6"/>
</g>
<defs>
<clipPath id="clip0_201_483">
<rect width="84" height="73.1881" fill="white"/>
</clipPath>
</defs>
</svg>
