<svg width="49" height="55" viewBox="0 0 49 55" fill="none" xmlns="http://www.w3.org/2000/svg">
<path d="M21.9271 9.68346L6.28214 30.2156C4.77991 32.1871 3.8368 34.5271 3.55204 36.9893C3.19455 40.0803 3.89292 43.2013 5.53366 45.8452L6.01214 46.6162C7.56805 49.1234 9.99698 50.9658 12.8307 51.7885C15.5266 52.5711 18.4121 52.379 20.9805 51.2461L21.2305 51.1358C23.1145 50.3048 24.7681 49.0279 26.0486 47.4153L41.4354 28.0381C42.7787 26.3465 43.7706 24.4037 44.3531 22.3236L44.7092 21.0521C45.5412 18.0807 45.2646 14.9082 43.9308 12.1257C42.7506 9.66363 40.8093 7.64675 38.3941 6.37338L37.96 6.14456C34.2301 4.17804 29.7676 4.18992 26.0482 6.17627C24.4386 7.03587 23.033 8.23205 21.9271 9.68346Z" fill="#EEC07B" stroke="#A38D75" stroke-width="2"/>
<rect width="18.1736" height="1.3462" rx="0.673099" transform="matrix(0.710794 0.7034 -0.595942 0.803028 28.4829 8.87207)" fill="#FF8A00"/>
<rect width="18.1736" height="1.3462" rx="0.673099" transform="matrix(0.710794 0.7034 -0.595942 0.803028 21.6616 17.3237)" fill="#FF8A00"/>
<rect width="18.1736" height="1.3462" rx="0.673099" transform="matrix(0.710794 0.7034 -0.595942 0.803028 15.5845 25.2007)" fill="#FF8A00"/>
<rect width="18.1736" height="1.3462" rx="0.673099" transform="matrix(0.710794 0.7034 -0.595942 0.803028 8.63916 33.7935)" fill="#FF8A00"/>
</svg>
