<svg width="99" height="100" viewBox="0 0 99 100" fill="none" xmlns="http://www.w3.org/2000/svg">
<g clip-path="url(#clip0_245_1525)">
<path d="M44.6544 12.1378L6.26349 55.9054C3.66116 58.8722 1.9947 62.5425 1.47389 66.4544L1.04303 69.6906C0.372892 74.7241 1.64247 79.824 4.59424 83.9559L8.23272 89.049C10.9873 92.9048 15.0214 95.6573 19.6163 96.816L26.1058 98.4525C30.0993 99.4596 34.3064 99.2092 38.1523 97.7355L44.1613 95.433C47.0649 94.3204 49.6691 92.5461 51.7671 90.251L90.2389 48.1639C92.1746 46.0462 93.6321 43.5369 94.5123 40.8062L96.3473 35.1138C98.0401 29.8626 97.4884 24.1454 94.8228 19.3148L93.2381 16.4431C91.1686 12.6927 87.9497 9.70588 84.0552 7.92225L75.1394 3.83882C69.8204 1.40278 63.7015 1.41773 58.3946 3.87975L51.2731 7.18355C48.7459 8.35598 46.4915 10.0435 44.6544 12.1378Z" fill="#EEC07B" stroke="#A38D75" stroke-width="4"/>
<rect x="58.0522" y="11.6025" width="38.818" height="2.81317" rx="1.40658" transform="rotate(40.5956 58.0522 11.6025)" fill="#FF8A00"/>
<rect x="42.4878" y="28.3027" width="38.818" height="2.81317" rx="1.40658" transform="rotate(40.5956 42.4878 28.3027)" fill="#FF8A00"/>
<rect x="28.6206" y="43.8682" width="38.818" height="2.81317" rx="1.40658" transform="rotate(40.5956 28.6206 43.8682)" fill="#FF8A00"/>
<rect x="12.7734" y="60.8477" width="38.818" height="2.81317" rx="1.40658" transform="rotate(40.5956 12.7734 60.8477)" fill="#FF8A00"/>
</g>
<defs>
<clipPath id="clip0_245_1525">
<rect width="99" height="100" fill="white"/>
</clipPath>
</defs>
</svg>
