<svg width="30" height="30" viewBox="0 0 30 30" fill="none" xmlns="http://www.w3.org/2000/svg">
<g clip-path="url(#clip0_197_468)">
<path d="M12.6846 8.66476C13.5708 5.93747 17.4292 5.93746 18.3154 8.66476V8.66476C18.7117 9.88445 19.8483 10.7102 21.1307 10.7102V10.7102C23.9984 10.7102 25.1907 14.3798 22.8707 16.0654V16.0654C21.8332 16.8192 21.399 18.1553 21.7953 19.375V19.375C22.6815 22.1023 19.56 24.3702 17.24 22.6846V22.6846C16.2025 21.9308 14.7975 21.9308 13.76 22.6846V22.6846C11.44 24.3702 8.31853 22.1023 9.20468 19.375V19.375C9.60098 18.1553 9.16684 16.8192 8.12931 16.0654V16.0654C5.80933 14.3798 7.00164 10.7102 9.8693 10.7102V10.7102C11.1517 10.7102 12.2883 9.88445 12.6846 8.66476V8.66476Z" fill="white"/>
<rect x="13" y="13" width="5" height="5" rx="2.5" fill="#1D1D1D"/>
</g>
<defs>
<clipPath id="clip0_197_468">
<rect width="30" height="30" fill="white"/>
</clipPath>
</defs>
</svg>
