<svg width="142" height="226" viewBox="0 0 142 226" fill="none" xmlns="http://www.w3.org/2000/svg">
<g clip-path="url(#clip0_156_2)">
<rect x="1.84912" y="5.43433" width="12.9091" height="256.301" transform="rotate(-30.0395 1.84912 5.43433)" fill="#B700A4"/>
<rect x="3.22729" y="158.136" width="12.9091" height="93.5909" transform="rotate(-90 3.22729 158.136)" fill="#6A6A6A"/>
<rect width="12.9091" height="225.909" fill="#4B4B4B"/>
<rect x="129.091" width="12.9091" height="225.909" fill="#4B4B4B"/>
<rect y="225.909" width="12.9091" height="109.727" transform="rotate(-90 0 225.909)" fill="#A38D75"/>
<rect y="12.9092" width="12.9091" height="109.727" transform="rotate(-90 0 12.9092)" fill="#A38D75"/>
<path d="M100.045 56.4773C100.045 84.4671 78.7419 106.5 53.25 106.5C27.7581 106.5 6.45455 84.4671 6.45455 56.4773C6.45455 28.4874 27.7581 6.45455 53.25 6.45455C78.7419 6.45455 100.045 28.4874 100.045 56.4773Z" stroke="#1D1D1D" stroke-width="12.9091"/>
<rect x="54.5482" y="96.5664" width="12.9091" height="37.7058" transform="rotate(-30.0395 54.5482 96.5664)" fill="#B700A4"/>
</g>
<defs>
<clipPath id="clip0_156_2">
<rect width="142" height="225.909" fill="white"/>
</clipPath>
</defs>
</svg>
