<svg width="83" height="66" viewBox="0 0 83 66" fill="none" xmlns="http://www.w3.org/2000/svg">
    <g clip-path="url(#clip0_126_10)">
        <rect width="11.5832" height="57.6022" rx="5.7916" transform="matrix(0.720744 0.693201 -0.590697 0.806893 71.3906 11.4917)" fill="#DDA360" />
        <rect width="11.0965" height="59.8202" rx="5.54823" transform="matrix(0.922906 -0.385024 0.30265 0.953102 10.8982 3.27246)" fill="#CB8E46" />
        <rect width="17.3816" height="60.455" rx="8.6908" transform="matrix(0.980181 0.198102 -0.152046 0.988373 45.0005 2.56909)" fill="#EEC07B" />
        <path d="M0 51.8386C0 43.0467 7.92758 36.3796 16.5893 37.8869L20.3585 38.5429L41.5 39.4286L61.8585 38.5429L66.4412 37.7749C75.1065 36.3228 83 43.0036 83 51.7897V51.7897C83 59.6378 76.6379 66 68.7897 66H14.1614C6.34027 66 0 59.6597 0 51.8386V51.8386Z" fill="#A38D75" />
        <path d="M71.636 35.5C72.3893 35.5 73.0066 34.8879 72.9358 34.138C72.4443 28.9329 69.149 24.007 63.6274 20.2972C57.6263 16.2652 49.4869 14 41 14C32.5131 14 24.3738 16.2652 18.3726 20.2972C12.851 24.007 9.55567 28.9329 9.06422 34.138C8.99341 34.8879 9.61066 35.5 10.3639 35.5L12.1807 35.5C12.934 35.5 13.537 34.8875 13.6195 34.1387C14.1032 29.7441 16.9169 25.5934 21.5861 22.4563C26.735 18.9969 33.7184 17.0534 41 17.0534C48.2816 17.0534 55.265 18.9969 60.4139 22.4563C65.0831 25.5934 67.8968 29.7441 68.3805 34.1387C68.463 34.8875 69.066 35.5 69.8193 35.5H71.636Z" fill="#EACEA6" />
    </g>
    <defs>
        <clipPath id="clip0_126_10">
            <rect width="83" height="66" fill="white" />
        </clipPath>
    </defs>
</svg>